<svg width="53" height="54" viewBox="0 0 53 54" fill="none" xmlns="http://www.w3.org/2000/svg">
<path d="M12.7808 27C12.5064 26.9996 12.235 27.0572 11.9838 27.1692C11.7327 27.2812 11.5073 27.4451 11.3222 27.6503C11.137 27.8556 10.9962 28.0978 10.9086 28.3614C10.821 28.6251 10.7886 28.9043 10.8135 29.1813C11.5499 37.3787 17.5203 44.3333 26.589 44.3333C35.6577 44.3333 41.6255 37.3787 42.3646 29.1813C42.3895 28.9043 42.3571 28.6251 42.2695 28.3614C42.1819 28.0978 42.041 27.8556 41.8558 27.6503C41.6707 27.4451 41.4453 27.2812 41.1942 27.1692C40.943 27.0572 40.6716 26.9996 40.3972 27H12.7782H12.7808ZM26.589 40.3333C20.6528 40.3333 16.4078 36.3867 15.1006 31H38.0775C36.7729 36.3867 32.5279 40.3333 26.589 40.3333Z" fill="#F4AF00"/>
<path d="M35.1369 18.3331C34.0638 18.3331 33.2695 19.0985 33.1433 19.9598C33.0665 20.4846 32.7873 20.9569 32.3671 21.273C31.9468 21.5891 31.42 21.7229 30.9024 21.6451C30.3848 21.5673 29.9189 21.2843 29.6072 20.8582C29.2954 20.4321 29.1634 19.8979 29.2401 19.3731C29.6662 16.4665 32.1938 14.3331 35.1369 14.3331C38.08 14.3331 40.6076 16.4665 41.0337 19.3731C41.1104 19.8979 40.9784 20.4321 40.6667 20.8582C40.3549 21.2843 39.889 21.5673 39.3714 21.6451C38.8538 21.7229 38.327 21.5891 37.9067 21.273C37.4865 20.9569 37.2073 20.4846 37.1306 19.9598C37.0043 19.0985 36.21 18.3331 35.1369 18.3331V18.3331Z" fill="#F4AF00"/>
<path d="M16.0474 19.9598C16.1737 19.0985 16.968 18.3331 18.0411 18.3331C19.1168 18.3331 19.9085 19.0985 20.0347 19.9598C20.1114 20.4846 20.3906 20.9569 20.8109 21.273C21.2311 21.5891 21.758 21.7229 22.2756 21.6451C22.7932 21.5673 23.2591 21.2843 23.5708 20.8582C23.8825 20.4321 24.0146 19.8979 23.9378 19.3731C23.5144 16.4665 20.9842 14.3331 18.0411 14.3331C15.0979 14.3331 12.5704 16.4665 12.1443 19.3731C12.0676 19.8979 12.1996 20.4321 12.5113 20.8582C12.823 21.2843 13.289 21.5673 13.8065 21.6451C14.3241 21.7229 14.851 21.5891 15.2712 21.273C15.6915 20.9569 15.9707 20.4846 16.0474 19.9598V19.9598Z" fill="#F4AF00"/>
<path d="M26.589 0.33313C12.0628 0.33313 0.287628 12.2718 0.287628 26.9998C0.287628 41.7278 12.0628 53.6665 26.589 53.6665C41.1152 53.6665 52.8904 41.7278 52.8904 26.9998C52.8904 12.2718 41.1152 0.33313 26.589 0.33313ZM4.23283 26.9998C4.23283 20.9882 6.58821 15.2229 10.7808 10.972C14.9734 6.72122 20.6598 4.33313 26.589 4.33313C32.5182 4.33313 38.2046 6.72122 42.3972 10.972C46.5898 15.2229 48.9452 20.9882 48.9452 26.9998C48.9452 33.0114 46.5898 38.7767 42.3972 43.0275C38.2046 47.2784 32.5182 49.6665 26.589 49.6665C20.6598 49.6665 14.9734 47.2784 10.7808 43.0275C6.58821 38.7767 4.23283 33.0114 4.23283 26.9998V26.9998Z" fill="#F4AF00"/>
</svg>
