<svg width="28" height="28" viewBox="0 0 28 28" fill="none" xmlns="http://www.w3.org/2000/svg">
<path d="M19.8134 16.6667C19.92 15.7867 20 14.9067 20 14C20 13.0934 19.92 12.2134 19.8134 11.3334H24.32C24.5334 12.1867 24.6667 13.08 24.6667 14C24.6667 14.92 24.5334 15.8134 24.32 16.6667H19.8134ZM17.4534 24.08C18.2534 22.6 18.8667 21 19.2934 19.3334H23.2267C21.9349 21.5577 19.8855 23.2427 17.4534 24.08ZM17.12 16.6667H10.88C10.7467 15.7867 10.6667 14.9067 10.6667 14C10.6667 13.0934 10.7467 12.2 10.88 11.3334H17.12C17.24 12.2 17.3334 13.0934 17.3334 14C17.3334 14.9067 17.24 15.7867 17.12 16.6667ZM14 24.6134C12.8934 23.0134 12 21.24 11.4534 19.3334H16.5467C16 21.24 15.1067 23.0134 14 24.6134ZM8.66669 8.66669H4.77335C6.05183 6.43631 8.09975 4.74867 10.5334 3.92002C9.73335 5.40002 9.13335 7.00002 8.66669 8.66669ZM4.77335 19.3334H8.66669C9.13335 21 9.73335 22.6 10.5334 24.08C8.10485 23.2422 6.05981 21.557 4.77335 19.3334ZM3.68002 16.6667C3.46669 15.8134 3.33335 14.92 3.33335 14C3.33335 13.08 3.46669 12.1867 3.68002 11.3334H8.18669C8.08002 12.2134 8.00002 13.0934 8.00002 14C8.00002 14.9067 8.08002 15.7867 8.18669 16.6667H3.68002ZM14 3.37335C15.1067 4.97335 16 6.76002 16.5467 8.66669H11.4534C12 6.76002 12.8934 4.97335 14 3.37335ZM23.2267 8.66669H19.2934C18.876 7.0153 18.2581 5.42121 17.4534 3.92002C19.9067 4.76002 21.9467 6.45335 23.2267 8.66669ZM14 0.666687C6.62669 0.666687 0.666687 6.66669 0.666687 14C0.666687 17.5362 2.07144 20.9276 4.57193 23.4281C5.81004 24.6662 7.2799 25.6484 8.89757 26.3184C10.5152 26.9885 12.2491 27.3334 14 27.3334C17.5362 27.3334 20.9276 25.9286 23.4281 23.4281C25.9286 20.9276 27.3334 17.5362 27.3334 14C27.3334 12.2491 26.9885 10.5152 26.3184 8.89757C25.6484 7.2799 24.6662 5.81004 23.4281 4.57193C22.19 3.33382 20.7201 2.35169 19.1025 1.68163C17.4848 1.01156 15.751 0.666687 14 0.666687Z" fill="white"/>
</svg>
