<svg width="28" height="26" viewBox="0 0 28 26" fill="none" xmlns="http://www.w3.org/2000/svg">
<path d="M1.70335 12.4627C1.58005 12.2027 1.46576 11.9385 1.36069 11.6707C0.928687 10.5647 0.666687 9.40268 0.666687 8.20002C0.666687 4.22335 3.92269 1.00002 7.94002 1.00002C10.4694 1.00002 12.6974 2.27868 14 4.21868C14.6681 3.22571 15.5704 2.4126 16.6274 1.85123C17.6843 1.28985 18.8633 0.997503 20.06 1.00002C24.078 1.00002 27.3334 4.22335 27.3334 8.20002C27.3334 13.3767 22.4847 17.8 20.06 20.2C18.4447 21.8 16.424 23.4 14 25C11.576 23.4 9.55535 21.8 7.94002 20.2C7.69535 19.9587 7.42669 19.696 7.14069 19.4147" stroke="white" stroke-width="1.16667" stroke-linecap="round" stroke-linejoin="round"/>
<path d="M3.33337 16.982L10.7427 9.69335L15.052 14.1374L21.508 7.54602" stroke="white" stroke-width="1.16667" stroke-linecap="round" stroke-linejoin="round"/>
</svg>
