<svg width="40" height="40" viewBox="0 0 40 40" fill="none" xmlns="http://www.w3.org/2000/svg">
<rect width="40" height="40" fill="white"/>
<path d="M0 0V40H40V0H0ZM32 14V14.75C32 23 25.75 32.25 14.5 32.25C11 32.25 7.75 31.25 5 29.5H6.5C9.5 29.5 12 28.5 14.25 26.75C11.5 26.75 9.25 25 8.5 22.5H9.75C10.25 22.5 10.75 22.5 11.25 22.25C8.5 21.75 6.25 19.25 6.25 16.25C7 16.75 8 17 9 17C7.25 16 6.25 14 6.25 12C6.25 10.75 6.5 9.75 7 9C10 12.75 14.75 15 19.75 15.25C19.75 14.75 19.5 14.25 19.5 13.75C19.5 10.25 22.25 7.5 25.75 7.5C27.5 7.5 29 8.25 30.25 9.5C31.75 9.25 33 8.75 34.25 8C33.75 9.5 32.75 10.75 31.5 11.5C32.75 11.25 34 11 35 10.5C34.25 12 33.25 13 32 14Z" fill="#3AA7E4"/>
</svg>
