<svg width="53" height="54" viewBox="0 0 53 54" fill="none" xmlns="http://www.w3.org/2000/svg">
<path d="M44.9863 5.66658H39.726V2.99992C39.726 2.29267 39.4489 1.6144 38.9557 1.1143C38.4624 0.614203 37.7935 0.333252 37.0959 0.333252C36.3983 0.333252 35.7294 0.614203 35.2361 1.1143C34.7429 1.6144 34.4658 2.29267 34.4658 2.99992V5.66658H18.6849V2.99992C18.6849 2.29267 18.4078 1.6144 17.9146 1.1143C17.4213 0.614203 16.7524 0.333252 16.0548 0.333252C15.3573 0.333252 14.6883 0.614203 14.195 1.1143C13.7018 1.6144 13.4247 2.29267 13.4247 2.99992V5.66658H8.1644C6.07173 5.66658 4.06477 6.50944 2.58503 8.00973C1.1053 9.51002 0.273987 11.5449 0.273987 13.6666V45.6666C0.273987 47.7883 1.1053 49.8231 2.58503 51.3234C4.06477 52.8237 6.07173 53.6666 8.1644 53.6666H44.9863C47.079 53.6666 49.0859 52.8237 50.5657 51.3234C52.0454 49.8231 52.8767 47.7883 52.8767 45.6666V13.6666C52.8767 11.5449 52.0454 9.51002 50.5657 8.00973C49.0859 6.50944 47.079 5.66658 44.9863 5.66658V5.66658ZM47.6165 45.6666C47.6165 46.3738 47.3394 47.0521 46.8461 47.5522C46.3529 48.0523 45.6839 48.3332 44.9863 48.3332H8.1644C7.46684 48.3332 6.79786 48.0523 6.30461 47.5522C5.81136 47.0521 5.53426 46.3738 5.53426 45.6666V26.9999H47.6165V45.6666ZM47.6165 21.6666H5.53426V13.6666C5.53426 12.9593 5.81136 12.2811 6.30461 11.781C6.79786 11.2809 7.46684 10.9999 8.1644 10.9999H13.4247V13.6666C13.4247 14.3738 13.7018 15.0521 14.195 15.5522C14.6883 16.0523 15.3573 16.3333 16.0548 16.3333C16.7524 16.3333 17.4213 16.0523 17.9146 15.5522C18.4078 15.0521 18.6849 14.3738 18.6849 13.6666V10.9999H34.4658V13.6666C34.4658 14.3738 34.7429 15.0521 35.2361 15.5522C35.7294 16.0523 36.3983 16.3333 37.0959 16.3333C37.7935 16.3333 38.4624 16.0523 38.9557 15.5522C39.4489 15.0521 39.726 14.3738 39.726 13.6666V10.9999H44.9863C45.6839 10.9999 46.3529 11.2809 46.8461 11.781C47.3394 12.2811 47.6165 12.9593 47.6165 13.6666V21.6666Z" fill="#F4AF00"/>
</svg>
