<svg width="64" height="64" viewBox="0 0 64 64" fill="none" xmlns="http://www.w3.org/2000/svg">
<path d="M41.9949 12C46.0158 12 49.2752 9.31375 49.2752 6C49.2752 2.68625 46.0158 0 41.9949 0C37.9741 0 34.7147 2.68625 34.7147 6C34.7147 9.31375 37.9741 12 41.9949 12ZM17.9837 39.6838L15.739 43.9987H5.59365C2.9136 43.9987 0.740143 45.79 0.740143 47.9987C0.740143 50.2075 2.9136 51.9987 5.59365 51.9987H17.3406C20.2603 51.9987 22.8888 50.5687 24.0309 48.3625L25.3641 45.7975L23.7458 45.01C21.1188 43.7312 19.1865 41.8388 17.9837 39.6838ZM58.9822 27.9988H52.3041L48.3515 21.3425C46.4556 18.1488 42.9747 15.8138 38.9812 14.975L28.2004 12.3325C23.908 11.4825 19.4383 12.2638 15.9392 14.475L9.92237 18.2763C7.79441 19.62 7.39096 22.13 9.02447 23.8838C10.658 25.6375 13.702 25.9663 15.8285 24.6238L21.8483 20.8225C23.0117 20.0863 24.4935 19.8225 25.6811 20.055L27.9107 20.6012L22.229 31.525C20.3149 35.21 22.0303 39.5263 26.218 41.5638L39.1071 47.835L34.9407 58.8013C34.1398 60.9088 35.564 63.1525 38.1212 63.8125C38.6051 63.9375 39.0934 63.9975 39.5742 63.9975C41.6385 63.9975 43.5526 62.9012 44.2033 61.1912L49.0022 48.5588C49.8986 45.9625 48.5638 43.1737 45.72 41.76L36.4316 37.2425L41.1805 27.4575L44.2548 32.6362C45.4682 34.6787 48.0345 35.9975 50.7934 35.9975H58.9822C61.6622 35.9975 63.8357 34.2062 63.8357 31.9975C63.8357 29.7887 61.6622 27.9988 58.9822 27.9988Z" fill="#F4AF00"/>
</svg>
