<svg width="64" height="64" viewBox="0 0 64 64" fill="none" xmlns="http://www.w3.org/2000/svg">
<path d="M32.179 27.9269L28.9775 37.9159H18.6174L26.999 44.0899L23.7955 54.0779L32.179 47.9059L40.5606 54.0779L37.3571 44.0899L45.7387 37.9159H35.3786L32.179 27.9269V27.9269ZM34.9781 43.0469L36.7061 48.4429L32.179 45.1069L27.648 48.4429L29.3799 43.0469L24.8508 39.7109H30.449L32.179 34.3149L33.909 39.7109H39.5053L34.9781 43.0469Z" fill="#F4AF00"/>
<path d="M44.6617 26.519V17.821C44.6617 17.457 44.4654 17.151 44.1872 16.961L53.8767 2H35.2997L32.179 6.746L29.0584 2H10.4794L20.1678 16.96C20.0249 17.0526 19.9068 17.1798 19.8241 17.33C19.7415 17.4803 19.6969 17.649 19.6944 17.821V26.519C15.2748 30.187 12.452 35.758 12.452 42C12.452 53.045 21.2843 62 32.178 62H32.179C32.8507 62 33.5145 61.965 34.1684 61.898C44.1271 60.887 51.9041 52.365 51.9041 42C51.9041 35.758 49.0813 30.187 44.6617 26.519ZM40.8831 3H47.1245L38.4203 16.239L35.2997 11.493L40.8831 3ZM41.541 20.985L42.5007 19.527C42.552 19.652 42.5815 19.788 42.5815 19.931V24.15C42.5793 24.4135 42.4739 24.6653 42.2886 24.85C39.3297 23.052 35.8786 22 32.178 22C28.6149 22.0008 25.1194 22.9865 22.0675 24.851C21.8821 24.6659 21.7768 24.4138 21.7745 24.15V19.931C21.7745 19.788 21.8041 19.651 21.8554 19.527L22.8151 20.986H41.541V20.985ZM17.2316 3H23.4729L34.6418 19.985H28.4005L17.2316 3ZM32.178 59C22.9186 59 15.4109 51.389 15.4109 42C15.4109 32.611 22.9186 25 32.178 25C41.4374 25 48.9452 32.611 48.9452 42C48.9452 51.389 41.4374 59 32.178 59Z" fill="#F4AF00"/>
</svg>
