<svg width="22" height="29" viewBox="0 0 22 29" fill="none" xmlns="http://www.w3.org/2000/svg">
<path d="M9.10669 9.72L6.66669 10.608V15.3333H4.00002V8.73333H4.02002L11.044 6.176C11.3694 6.052 11.724 5.98933 12.0867 6.00133C12.8114 6.0194 13.5124 6.26281 14.0924 6.69771C14.6723 7.13261 15.1023 7.7374 15.3227 8.428C15.5707 9.20533 15.7974 9.73067 16.0027 10.004C16.6232 10.8315 17.4281 11.503 18.3534 11.9652C19.2787 12.4274 20.299 12.6675 21.3334 12.6667V15.3333C19.9564 15.3348 18.5963 15.031 17.3508 14.4438C16.1054 13.8566 15.0056 13.0006 14.1307 11.9373L13.356 16.3333L16 18.8933V28.6667H13.3334V20.6853L10.6 18.036L9.33736 23.7667L0.145355 22.1467L0.609355 19.52L7.17469 20.6773L9.10669 9.72ZM14 5.33333C13.2928 5.33333 12.6145 5.05238 12.1144 4.55228C11.6143 4.05219 11.3334 3.37391 11.3334 2.66667C11.3334 1.95942 11.6143 1.28115 12.1144 0.781048C12.6145 0.280951 13.2928 0 14 0C14.7073 0 15.3855 0.280951 15.8856 0.781048C16.3857 1.28115 16.6667 1.95942 16.6667 2.66667C16.6667 3.37391 16.3857 4.05219 15.8856 4.55228C15.3855 5.05238 14.7073 5.33333 14 5.33333Z" fill="white"/>
</svg>
