<svg width="28" height="28" viewBox="0 0 28 28" fill="none" xmlns="http://www.w3.org/2000/svg">
<path d="M8 16C8.53043 16 9.03914 15.7893 9.41421 15.4142C9.78929 15.0391 10 14.5304 10 14C10 13.4696 9.78929 12.9609 9.41421 12.5858C9.03914 12.2107 8.53043 12 8 12C7.46957 12 6.96086 12.2107 6.58579 12.5858C6.21071 12.9609 6 13.4696 6 14C6 14.5304 6.21071 15.0391 6.58579 15.4142C6.96086 15.7893 7.46957 16 8 16ZM14 16C14.5304 16 15.0391 15.7893 15.4142 15.4142C15.7893 15.0391 16 14.5304 16 14C16 13.4696 15.7893 12.9609 15.4142 12.5858C15.0391 12.2107 14.5304 12 14 12C13.4696 12 12.9609 12.2107 12.5858 12.5858C12.2107 12.9609 12 13.4696 12 14C12 14.5304 12.2107 15.0391 12.5858 15.4142C12.9609 15.7893 13.4696 16 14 16ZM22 14C22 14.5304 21.7893 15.0391 21.4142 15.4142C21.0391 15.7893 20.5304 16 20 16C19.4696 16 18.9609 15.7893 18.5858 15.4142C18.2107 15.0391 18 14.5304 18 14C18 13.4696 18.2107 12.9609 18.5858 12.5858C18.9609 12.2107 19.4696 12 20 12C20.5304 12 21.0391 12.2107 21.4142 12.5858C21.7893 12.9609 22 13.4696 22 14ZM28 14C28 21.732 21.732 28 14 28C6.268 28 0 21.732 0 14C0 6.268 6.268 0 14 0C21.732 0 28 6.268 28 14ZM26 14C26 7.373 20.627 2 14 2C7.373 2 2 7.373 2 14C2 20.627 7.373 26 14 26C20.627 26 26 20.627 26 14Z" fill="white"/>
</svg>
