<svg width="24" height="23" viewBox="0 0 24 23" fill="none" xmlns="http://www.w3.org/2000/svg">
<path d="M24 2.61559C23.1174 3.05759 22.1693 3.35624 21.1726 3.49123C22.201 2.79573 22.9704 1.70109 23.3373 0.41156C22.371 1.06021 21.3135 1.51679 20.2107 1.76145C19.4691 0.86654 18.4868 0.273377 17.4164 0.0740559C16.3459 -0.125265 15.2472 0.0804081 14.2907 0.659143C13.3343 1.23788 12.5737 2.1573 12.127 3.27465C11.6803 4.39201 11.5725 5.64479 11.8203 6.83848C9.86244 6.72738 7.94711 6.15225 6.19863 5.15041C4.45016 4.14857 2.90761 2.74241 1.6711 1.02319C1.2483 1.84746 1.0052 2.80314 1.0052 3.82094C1.00473 4.73719 1.20437 5.6394 1.58641 6.44753C1.96846 7.25566 2.52109 7.94473 3.19528 8.45358C2.4134 8.42546 1.64877 8.18669 0.965031 7.75713V7.8288C0.964952 9.11388 1.35827 10.3594 2.07823 11.3541C2.7982 12.3487 3.80048 13.0312 4.915 13.2857C4.18968 13.5076 3.42923 13.5403 2.69109 13.3813C3.00555 14.487 3.61807 15.4539 4.44291 16.1467C5.26776 16.8394 6.26363 17.2233 7.29111 17.2446C5.5469 18.7921 3.39282 19.6315 1.17537 19.6278C0.782575 19.6279 0.39011 19.602 0 19.5502C2.25083 21.1858 4.87097 22.0538 7.5469 22.0505C16.6053 22.0505 21.5573 13.5712 21.5573 6.2173C21.5573 5.97838 21.552 5.73707 21.5425 5.49815C22.5057 4.71088 23.3372 3.736 23.9979 2.61917L24 2.61559Z" fill="white"/>
</svg>
